# xmcd
#
# Track frame offsets: 
#        150
#        17253
#        39568
#        64898
#
# Disc length: 2210 seconds
#
# Revision: 5
# Processed by: cddbd v1.5.2PL0 Copyright (c) Steve Scherf et al.
# Submitted via: ExactAudioCopy v0.99pb5
#
DISCID=2808a004
DTITLE=The Black Eyed Peas - Hey Mama
DYEAR=2004
DGENRE=Hip-Hop
TTITLE0=Hey Mama
TTITLE1=Positivity (Live From House Of Blues, Chicago)
TTITLE2=Release (Live From House Of Blues, Chicago)
TTITLE3=The Black Eyed Peas - Hey Mama (The Video)
EXTD=
EXTT0=
EXTT1=
EXTT2=
EXTT3=
PLAYORDER=
